<svg data-v-fde0c5aa="" xmlns="http://www.w3.org/2000/svg" viewBox="0 0 300 300" class="iconAbove"><!----><defs data-v-fde0c5aa=""><linearGradient data-v-fde0c5aa="" gradientTransform="rotate(25)" id="eb476776-3c4a-4ab2-aae8-1e16d8c15efb" x1="0%" y1="0%" x2="100%" y2="0%"><stop data-v-fde0c5aa="" offset="0%" stop-color="#326D8A" stop-opacity="1"></stop><stop data-v-fde0c5aa="" offset="100%" stop-color="#D468D7" stop-opacity="1"></stop></linearGradient></defs><rect data-v-fde0c5aa="" fill="url(#eb476776-3c4a-4ab2-aae8-1e16d8c15efb)" x="0" y="0" width="300px" height="300px" class="logo-background-square"></rect><defs data-v-fde0c5aa=""><!----></defs><g data-v-fde0c5aa="" id="090f4db9-27d8-4d62-8c14-bfb7717bc442" fill="#ffffff" transform="matrix(2.9213483146067416,0,0,2.9213483146067416,19.795505595341158,168.78651657533112)"><path d="M0.69 7.32L0.69 7.32L0.69 7.32Q0.69 7.07 0.87 7.07L0.87 7.07L0.87 7.07Q1.15 7.07 1.44 7.19L1.44 7.19L1.44 7.19Q1.74 7.31 2.07 7.38L2.07 7.38L2.07 7.38Q3.19 4.98 4.65 4.26L4.65 4.26L4.65 4.26Q5.15 4.00 5.66 4.00L5.66 4.00L5.66 4.00Q6.59 4.02 6.92 4.45L6.92 4.45L6.92 4.45Q7.25 4.89 7.25 5.57L7.25 5.57L7.25 5.57Q7.24 6.87 6.13 7.62L6.13 7.62L6.13 7.62Q5.03 8.37 3.43 8.46L3.43 8.46L3.43 8.46Q3.02 9.53 2.80 10.75L2.80 10.75L2.80 10.75Q3.35 10.54 4.20 10.54L4.20 10.54L4.20 10.54Q4.31 11.42 4.59 11.80L4.59 11.80L4.59 11.80Q4.87 12.18 5.21 12.18L5.21 12.18L5.21 12.18Q5.56 12.18 5.79 12.01L5.79 12.01L5.79 12.01Q6.02 11.84 6.20 11.63L6.20 11.63L6.20 11.63Q6.37 11.42 6.49 11.26L6.49 11.26L6.49 11.26Q6.61 11.09 6.72 11.09L6.72 11.09L6.72 11.09Q6.96 11.09 6.96 11.51L6.96 11.51L6.96 11.51Q6.96 12.35 6.54 12.90L6.54 12.90L6.54 12.90Q6.12 13.45 5.25 13.45L5.25 13.45L5.25 13.45Q3.89 13.45 3.32 12.74L3.32 12.74L3.32 12.74Q3.63 15.82 3.63 16.41L3.63 16.41L3.63 16.41Q3.63 17.46 2.97 17.91L2.97 17.91L2.97 17.91Q2.42 18.28 1.57 18.28L1.57 18.28L1.57 18.28Q0.73 18.28 0.40 17.90L0.40 17.90L0.40 17.90Q0.07 17.51 0.07 16.98L0.07 16.98L0.07 16.98Q0.07 13.61 1.04 10.19L1.04 10.19L1.04 10.19Q1.34 9.10 1.74 8.15L1.74 8.15L1.74 8.15Q0.69 7.69 0.69 7.32ZM2.09 17.21L2.09 17.21Q2.25 17.21 2.39 16.95L2.39 16.95L2.39 16.95Q2.53 16.69 2.53 16.39L2.53 16.39L2.53 16.39Q2.53 15.43 2.27 13.43L2.27 13.43L2.27 13.43Q1.92 14.87 1.79 16.30L1.79 16.30L1.79 16.30Q1.76 16.60 1.76 16.67L1.76 16.67L1.76 16.67Q1.76 17.21 2.09 17.21L2.09 17.21ZM5.54 5.39L5.54 5.39L5.54 5.39Q5.26 5.39 4.78 5.92L4.78 5.92L4.78 5.92Q4.30 6.45 3.79 7.55L3.79 7.55L3.79 7.55Q4.82 7.10 5.14 6.86L5.14 6.86L5.14 6.86Q5.80 6.40 5.80 5.75L5.80 5.75L5.80 5.75Q5.80 5.39 5.54 5.39ZM8.30 12.10L8.30 12.10L8.39 13.80L8.39 13.80Q8.39 14.14 8.04 14.41L8.04 14.41L8.04 14.41Q7.69 14.67 7.08 14.67L7.08 14.67L7.08 14.67Q6.73 14.67 6.60 14.31L6.60 14.31L6.60 14.31Q6.47 13.94 6.47 13.24L6.47 13.24L6.47 13.24Q6.47 11.77 6.62 10.94L6.62 10.94L6.62 10.94Q6.76 10.11 7.20 9.25L7.20 9.25L7.20 9.25Q6.55 8.64 6.55 8.19L6.55 8.19L6.55 8.19Q6.55 7.25 7.56 7.25L7.56 7.25L7.56 7.25Q8.08 7.25 8.47 7.80L8.47 7.80L8.47 7.80Q8.75 8.18 8.88 8.68L8.88 8.68L8.88 8.68Q9.07 8.75 9.37 8.75L9.37 8.75L9.37 8.75Q9.77 8.75 10.30 8.48L10.30 8.48L10.67 8.30L10.67 8.30Q10.84 8.22 10.96 8.22L10.96 8.22L10.96 8.22Q11.37 8.22 11.77 9.41L11.77 9.41L11.77 9.41Q11.65 9.95 11.50 10.46L11.50 10.46L11.50 10.46Q11.35 10.96 11.16 11.68L11.16 11.68L11.16 11.68Q10.96 12.39 10.96 12.63L10.96 12.63L10.96 12.63Q10.95 12.88 11.10 12.88L11.10 12.88L11.10 12.88Q11.31 12.88 11.62 12.61L11.62 12.61L11.62 12.61Q11.93 12.35 12.24 12.03L12.24 12.03L12.24 12.03Q12.54 11.72 12.80 11.45L12.80 11.45L12.80 11.45Q13.06 11.19 13.16 11.19L13.16 11.19L13.16 11.19Q13.36 11.19 13.36 11.66L13.36 11.66L13.36 11.66Q13.36 12.63 12.51 13.57L12.51 13.57L12.51 13.57Q11.66 14.50 10.57 14.49L10.57 14.49L10.57 14.49Q9.93 14.49 9.60 13.97L9.60 13.97L9.60 13.97Q9.28 13.45 9.27 12.71L9.27 12.71L9.27 12.71Q9.27 11.24 9.93 9.93L9.93 9.93L9.93 9.93Q9.62 10.05 9.23 10.05L9.23 10.05L9.23 10.05Q8.85 10.05 8.68 10.02L8.68 10.02L8.68 10.02Q8.55 10.56 8.43 11.10L8.43 11.10L8.43 11.10Q8.30 11.63 8.30 12.10ZM15.92 12.92L15.92 12.92L15.92 12.92Q17.01 12.92 18.03 12.05L18.03 12.05L18.03 12.05Q18.41 11.73 18.65 11.46L18.65 11.46L18.65 11.46Q18.89 11.19 19.01 11.19L19.01 11.19L19.01 11.19Q19.21 11.19 19.21 11.58L19.21 11.58L19.21 11.58Q19.21 11.97 19.00 12.45L19.00 12.45L19.00 12.45Q18.79 12.94 18.30 13.40L18.30 13.40L18.30 13.40Q17.09 14.53 14.99 14.53L14.99 14.53L14.99 14.53Q13.33 14.53 12.73 13.33L12.73 13.33L12.73 13.33Q12.52 12.91 12.52 12.12L12.52 12.12L12.52 12.12Q12.52 11.34 12.82 10.49L12.82 10.49L12.82 10.49Q13.13 9.65 13.64 9.03L13.64 9.03L13.64 9.03Q14.15 8.41 14.83 8.07L14.83 8.07L14.83 8.07Q15.50 7.73 16.26 7.73L16.26 7.73L16.26 7.73Q17.02 7.73 17.44 8.11L17.44 8.11L17.44 8.11Q17.85 8.48 17.85 9.09L17.85 9.09L17.85 9.09Q17.85 9.69 17.55 10.07L17.55 10.07L17.55 10.07Q17.25 10.46 16.77 10.72L16.77 10.72L16.77 10.72Q16.30 10.98 15.71 11.18L15.71 11.18L15.71 11.18Q15.13 11.38 14.57 11.63L14.57 11.63L14.57 11.98L14.57 11.98Q14.59 12.49 14.99 12.70L14.99 12.70L14.99 12.70Q15.40 12.91 15.92 12.92ZM15.68 8.97L15.68 8.97L15.68 8.97Q14.95 8.97 14.67 10.67L14.67 10.67L14.67 10.67Q14.97 10.47 15.23 10.32L15.23 10.32L15.23 10.32Q15.48 10.16 15.68 10.02L15.68 10.02L15.68 10.02Q16.10 9.72 16.11 9.32L16.11 9.32L16.11 9.32Q16.11 8.97 15.68 8.97ZM21.77 12.92L21.77 12.92L21.77 12.92Q22.86 12.92 23.88 12.05L23.88 12.05L23.88 12.05Q24.26 11.73 24.50 11.46L24.50 11.46L24.50 11.46Q24.74 11.19 24.86 11.19L24.86 11.19L24.86 11.19Q25.06 11.19 25.06 11.58L25.06 11.58L25.06 11.58Q25.06 11.97 24.85 12.45L24.85 12.45L24.85 12.45Q24.64 12.94 24.15 13.40L24.15 13.40L24.15 13.40Q22.95 14.53 20.85 14.53L20.85 14.53L20.85 14.53Q19.18 14.53 18.58 13.33L18.58 13.33L18.58 13.33Q18.37 12.91 18.37 12.12L18.37 12.12L18.37 12.12Q18.37 11.34 18.68 10.49L18.68 10.49L18.68 10.49Q18.98 9.65 19.50 9.03L19.50 9.03L19.50 9.03Q20.01 8.41 20.68 8.07L20.68 8.07L20.68 8.07Q21.35 7.73 22.11 7.73L22.11 7.73L22.11 7.73Q22.88 7.73 23.29 8.11L23.29 8.11L23.29 8.11Q23.70 8.48 23.70 9.09L23.70 9.09L23.70 9.09Q23.70 9.69 23.40 10.07L23.40 10.07L23.40 10.07Q23.10 10.46 22.62 10.72L22.62 10.72L22.62 10.72Q22.15 10.98 21.57 11.18L21.57 11.18L21.57 11.18Q20.99 11.38 20.43 11.63L20.43 11.63L20.43 11.98L20.43 11.98Q20.44 12.49 20.85 12.70L20.85 12.70L20.85 12.70Q21.25 12.91 21.77 12.92ZM21.53 8.97L21.53 8.97L21.53 8.97Q20.80 8.97 20.52 10.67L20.52 10.67L20.52 10.67Q20.82 10.47 21.08 10.32L21.08 10.32L21.08 10.32Q21.34 10.16 21.53 10.02L21.53 10.02L21.53 10.02Q21.95 9.72 21.97 9.32L21.97 9.32L21.97 9.32Q21.97 8.97 21.53 8.97ZM31.39 12.18L31.39 12.18L31.39 12.18Q31.75 11.91 32.05 11.53L32.05 11.53L32.05 11.53Q32.34 11.14 32.54 11.14L32.54 11.14L32.54 11.14Q32.75 11.14 32.75 11.75L32.75 11.75L32.75 11.75Q32.75 12.36 32.40 12.90L32.40 12.90L32.40 12.90Q32.06 13.44 31.50 13.80L31.50 13.80L31.50 13.80Q30.35 14.56 28.78 14.56L28.78 14.56L28.78 14.56Q26.88 14.56 25.83 13.61L25.83 13.61L25.83 13.61Q24.78 12.66 24.78 10.96L24.78 10.96L24.78 10.96Q24.78 8.88 25.79 7L25.79 7L25.79 7Q26.12 6.38 26.54 5.87L26.54 5.87L26.54 5.87Q26.22 5.49 26.03 5.08L26.03 5.08L26.03 5.08Q25.84 4.66 25.84 4.45L25.84 4.45L25.84 4.45Q25.84 4.07 26.12 4.07L26.12 4.07L26.12 4.07Q26.32 4.09 26.57 4.34L26.57 4.34L27.01 4.76L27.01 4.76Q27.17 4.93 27.36 5.04L27.36 5.04L27.36 5.04Q28.74 3.86 30.35 3.86L30.35 3.86L30.35 3.86Q31.95 3.86 32.42 4.76L32.42 4.76L32.42 4.76Q32.59 5.10 32.59 5.59L32.59 5.59L32.59 5.59Q32.59 6.33 31.95 6.83L31.95 6.83L31.95 6.83Q31.30 7.34 30.22 7.34L30.22 7.34L30.22 7.34Q29.13 7.34 27.97 6.89L27.97 6.89L27.97 6.89Q26.98 8.58 26.98 10.43L26.98 10.43L26.98 10.43Q26.98 12.99 29.02 12.99L29.02 12.99L29.02 12.99Q30.28 12.99 31.39 12.18ZM28.64 6.02L28.64 6.02L28.64 6.02Q29.36 6.26 30.20 6.26L30.20 6.26L30.20 6.26Q31.04 6.26 31.04 5.80L31.04 5.80L31.04 5.80Q31.04 5.25 30.35 5.25L30.35 5.25L30.35 5.25Q29.41 5.25 28.64 6.02ZM37.70 13.26L37.70 13.26L37.70 13.26Q36.60 14.56 35.05 14.56L35.05 14.56L35.05 14.56Q33.50 14.56 32.73 13.77L32.73 13.77L32.73 13.77Q31.96 12.98 31.98 11.80L31.98 11.80L31.98 11.80Q31.96 10.14 33.03 8.93L33.03 8.93L33.03 8.93Q34.09 7.73 35.81 7.73L35.81 7.73L35.81 7.73Q36.60 7.73 37.07 7.92L37.07 7.92L37.07 7.92Q37.90 8.26 37.90 8.55L37.90 8.55L37.90 8.55Q37.90 8.78 36.74 8.79L36.74 8.79L36.74 8.79Q35.59 8.79 34.81 9.58L34.81 9.58L34.81 9.58Q34.03 10.37 34.03 11.58L34.03 11.58L34.03 11.58Q34.03 12.21 34.41 12.63L34.41 12.63L34.41 12.63Q34.78 13.06 35.45 13.06L35.45 13.06L35.45 13.06Q36.13 13.06 36.58 12.78L36.58 12.78L36.58 12.78Q35.59 12.11 35.59 10.84L35.59 10.84L35.59 10.84Q35.57 10.16 36.07 9.61L36.07 9.61L36.07 9.61Q36.57 9.06 37.34 9.05L37.34 9.05L37.34 9.05Q38.12 9.04 38.46 9.48L38.46 9.48L38.46 9.48Q38.79 9.91 38.79 10.59L38.79 10.59L38.79 10.59Q38.79 11.27 38.47 12.03L38.47 12.03L38.56 12.03L38.56 12.03Q39.17 12.01 39.62 11.59L39.62 11.59L39.62 11.59Q39.79 11.42 39.91 11.30L39.91 11.30L39.91 11.30Q40.03 11.17 40.15 11.17L40.15 11.17L40.15 11.17Q40.35 11.17 40.35 11.63L40.35 11.63L40.35 11.63Q40.35 12.49 39.84 12.92L39.84 12.92L39.84 12.92Q39.34 13.34 38.73 13.34L38.73 13.34L38.73 13.34Q38.12 13.34 37.70 13.26ZM37.58 11.63L37.58 11.63L37.58 11.63Q37.81 11.13 37.81 10.65L37.81 10.65L37.81 10.65Q37.81 10.18 37.51 10.18L37.51 10.18L37.51 10.18Q37.38 10.18 37.30 10.36L37.30 10.36L37.30 10.36Q37.21 10.54 37.21 10.71L37.21 10.71L37.21 10.71Q37.21 11.27 37.58 11.63ZM48.24 11.14L48.24 11.14L48.24 11.14Q48.50 11.14 48.50 11.79L48.50 11.79L48.50 11.79Q48.50 12.14 48.20 12.63L48.20 12.63L48.20 12.63Q47.91 13.13 47.44 13.54L47.44 13.54L47.44 13.54Q46.97 13.96 46.40 14.22L46.40 14.22L46.40 14.22Q45.82 14.49 45.28 14.49L45.28 14.49L45.28 14.49Q44.51 14.49 44.27 13.23L44.27 13.23L44.27 13.23Q43.43 14.56 41.78 14.56L41.78 14.56L41.78 14.56Q40.77 14.56 40.17 13.94L40.17 13.94L40.17 13.94Q39.56 13.33 39.58 12.45L39.58 12.45L39.58 12.45Q39.58 10.07 41.16 8.69L41.16 8.69L41.16 8.69Q42.25 7.76 43.43 7.76L43.43 7.76L43.43 7.76Q43.96 7.76 44.27 7.84L44.27 7.84L44.59 7.92L44.59 7.92Q45.16 5.22 45.92 4.31L45.92 4.31L45.92 4.31Q46.17 4.00 46.42 4.00L46.42 4.00L46.42 4.00Q46.83 4.00 47.18 4.56L47.18 4.56L47.18 4.56Q47.49 5.03 47.49 5.36L47.49 5.36L47.49 5.36Q47.49 5.70 47.39 6.02L47.39 6.02L47.39 6.02Q47.29 6.34 47.15 6.62L47.15 6.62L47.15 6.62Q47.00 6.89 46.82 7.15L46.82 7.15L46.82 7.15Q46.63 7.41 46.45 7.67L46.45 7.67L46.45 7.67Q46.05 9.18 45.85 11.06L45.85 11.06L45.85 11.06Q45.79 11.59 45.79 11.91L45.79 11.91L45.79 11.91Q45.79 12.88 46.12 12.88L46.12 12.88L46.12 12.88Q46.48 12.88 47.88 11.42L47.88 11.42L47.88 11.42Q48.13 11.14 48.24 11.14ZM41.64 11.98L41.64 11.98L41.64 11.98Q41.64 13.06 42.43 13.06L42.43 13.06L42.43 13.06Q42.91 13.06 43.39 12.70L43.39 12.70L43.39 12.70Q43.88 12.33 44.14 11.48L44.14 11.48L44.14 11.48Q44.17 10.22 44.44 8.71L44.44 8.71L44.44 8.71Q43.32 8.93 42.48 9.80L42.48 9.80L42.48 9.80Q41.64 10.67 41.64 11.98ZM51.06 12.92L51.06 12.92L51.06 12.92Q52.15 12.92 53.17 12.05L53.17 12.05L53.17 12.05Q53.55 11.73 53.79 11.46L53.79 11.46L53.79 11.46Q54.03 11.19 54.15 11.19L54.15 11.19L54.15 11.19Q54.35 11.19 54.35 11.58L54.35 11.58L54.35 11.58Q54.35 11.97 54.14 12.45L54.14 12.45L54.14 12.45Q53.93 12.94 53.44 13.40L53.44 13.40L53.44 13.40Q52.23 14.53 50.13 14.53L50.13 14.53L50.13 14.53Q48.47 14.53 47.87 13.33L47.87 13.33L47.87 13.33Q47.66 12.91 47.66 12.12L47.66 12.12L47.66 12.12Q47.66 11.34 47.96 10.49L47.96 10.49L47.96 10.49Q48.27 9.65 48.78 9.03L48.78 9.03L48.78 9.03Q49.29 8.41 49.97 8.07L49.97 8.07L49.97 8.07Q50.64 7.73 51.40 7.73L51.40 7.73L51.40 7.73Q52.16 7.73 52.58 8.11L52.58 8.11L52.58 8.11Q52.99 8.48 52.99 9.09L52.99 9.09L52.99 9.09Q52.99 9.69 52.69 10.07L52.69 10.07L52.69 10.07Q52.39 10.46 51.91 10.72L51.91 10.72L51.91 10.72Q51.44 10.98 50.86 11.18L50.86 11.18L50.86 11.18Q50.27 11.38 49.71 11.63L49.71 11.63L49.71 11.98L49.71 11.98Q49.73 12.49 50.13 12.70L50.13 12.70L50.13 12.70Q50.54 12.91 51.06 12.92ZM50.82 8.97L50.82 8.97L50.82 8.97Q50.09 8.97 49.81 10.67L49.81 10.67L49.81 10.67Q50.11 10.47 50.37 10.32L50.37 10.32L50.37 10.32Q50.62 10.16 50.82 10.02L50.82 10.02L50.82 10.02Q51.24 9.72 51.25 9.32L51.25 9.32L51.25 9.32Q51.25 8.97 50.82 8.97ZM56.83 7.85L56.83 7.85L56.83 7.85Q56.27 9.23 56.27 10.41L56.27 10.41L56.27 10.41Q56.27 11.59 56.75 12.15L56.75 12.15L56.75 12.15Q57.23 12.71 58.31 12.71L58.31 12.71L58.31 12.71Q58.95 12.71 59.44 12.25L59.44 12.25L59.44 12.25Q59.60 11.10 59.70 10.72L59.70 10.72L59.70 10.72Q59.93 9.80 60.42 9.80L60.42 9.80L60.42 9.80Q60.82 9.80 61.17 10.34L61.17 10.34L61.17 10.34Q61.52 10.88 61.50 11.26L61.50 11.26L61.50 11.26Q61.50 11.89 61.00 13.59L61.00 13.59L61.00 13.59Q61.98 12.85 63.25 11.40L63.25 11.40L63.25 11.40Q63.43 11.19 63.56 11.19L63.56 11.19L63.56 11.19Q63.76 11.19 63.76 11.65L63.76 11.65L63.76 11.65Q63.76 12.54 62.86 13.56L62.86 13.56L62.86 13.56Q61.96 14.57 60.48 15.18L60.48 15.18L60.48 15.18Q60.37 15.44 60.30 15.68L60.30 15.68L60.30 15.68Q60.23 15.92 60.12 16.25L60.12 16.25L60.12 16.25Q60.00 16.59 59.72 16.99L59.72 16.99L59.72 16.99Q59.44 17.39 59.02 17.67L59.02 17.67L59.02 17.67Q58.13 18.28 56.97 18.28L56.97 18.28L56.97 18.28Q55.82 18.28 55.04 17.77L55.04 17.77L55.04 17.77Q54.26 17.26 54.26 16.37L54.26 16.37L54.26 16.37Q54.26 15.93 54.68 15.65L54.68 15.65L54.68 15.65Q55.10 15.37 55.78 15.17L55.78 15.17L55.78 15.17Q56.45 14.97 57.29 14.81L57.29 14.81L57.29 14.81Q58.13 14.66 58.97 14.46L58.97 14.46L58.97 14.46Q59.08 14.14 59.14 13.86L59.14 13.86L59.14 13.86Q58.59 14.28 57.79 14.28L57.79 14.28L57.79 14.28Q56.13 14.28 55.17 13.59L55.17 13.59L55.17 13.59Q54.07 12.80 54.07 11.10L54.07 11.10L54.07 11.10Q54.07 8.89 55.19 6.90L55.19 6.90L55.19 6.90Q54.85 6.51 54.64 6.08L54.64 6.08L54.64 6.08Q54.43 5.66 54.43 5.43L54.43 5.43L54.43 5.43Q54.43 5.04 54.71 5.05L54.71 5.05L54.71 5.05Q54.89 5.05 55.13 5.28L55.13 5.28L55.13 5.28Q55.37 5.50 55.52 5.66L55.52 5.66L55.52 5.66Q55.66 5.81 55.83 5.94L55.83 5.94L55.83 5.94Q56.56 5.01 57.54 4.44L57.54 4.44L57.54 4.44Q58.52 3.86 59.70 3.86L59.70 3.86L59.70 3.86Q60.87 3.86 61.53 4.30L61.53 4.30L61.53 4.30Q62.19 4.73 62.19 5.81L62.19 5.81L62.19 5.81Q62.19 6.89 61.36 7.60L61.36 7.60L61.36 7.60Q60.52 8.32 59.04 8.32L59.04 8.32L59.04 8.32Q58.02 8.32 56.83 7.85ZM57.29 6.90L57.29 6.90L57.29 6.90Q58.06 7.24 59.15 7.24L59.15 7.24L59.15 7.24Q59.82 7.24 60.23 6.87L60.23 6.87L60.23 6.87Q60.63 6.51 60.63 6.08L60.63 6.08L60.63 6.08Q60.63 5.66 60.36 5.45L60.36 5.45L60.36 5.45Q60.09 5.25 59.64 5.25L59.64 5.25L59.64 5.25Q58.30 5.25 57.29 6.90ZM56.81 17.21L56.81 17.21L56.81 17.21Q57.76 17.21 58.48 15.78L58.48 15.78L58.48 15.78Q57.71 15.97 57.18 16.09L57.18 16.09L57.18 16.09Q56.64 16.20 56.32 16.28L56.32 16.28L56.32 16.28Q55.99 16.37 55.84 16.45L55.84 16.45L55.84 16.45Q55.69 16.53 55.69 16.69L55.69 16.69L55.69 16.69Q55.69 16.95 56.05 17.07L56.05 17.07L56.05 17.07Q56.41 17.19 56.81 17.21ZM65.10 12.10L65.10 12.10L65.18 13.80L65.18 13.80Q65.18 14.14 64.83 14.41L64.83 14.41L64.83 14.41Q64.48 14.67 63.88 14.67L63.88 14.67L63.88 14.67Q63.53 14.67 63.40 14.31L63.40 14.31L63.40 14.31Q63.27 13.94 63.27 13.24L63.27 13.24L63.27 13.24Q63.27 11.77 63.41 10.94L63.41 10.94L63.41 10.94Q63.56 10.11 63.99 9.25L63.99 9.25L63.99 9.25Q63.35 8.64 63.35 8.19L63.35 8.19L63.35 8.19Q63.35 7.25 64.36 7.25L64.36 7.25L64.36 7.25Q64.88 7.25 65.27 7.80L65.27 7.80L65.27 7.80Q65.55 8.18 65.67 8.68L65.67 8.68L65.67 8.68Q65.87 8.75 66.16 8.75L66.16 8.75L66.16 8.75Q66.57 8.75 67.10 8.48L67.10 8.48L67.47 8.30L67.47 8.30Q67.63 8.22 67.76 8.22L67.76 8.22L67.76 8.22Q68.17 8.22 68.57 9.41L68.57 9.41L68.57 9.41Q68.45 9.95 68.30 10.46L68.30 10.46L68.30 10.46Q68.15 10.96 67.96 11.68L67.96 11.68L67.96 11.68Q67.76 12.39 67.75 12.63L67.75 12.63L67.75 12.63Q67.75 12.88 67.90 12.88L67.90 12.88L67.90 12.88Q68.11 12.88 68.42 12.61L68.42 12.61L68.42 12.61Q68.73 12.35 69.03 12.03L69.03 12.03L69.03 12.03Q69.34 11.72 69.60 11.45L69.60 11.45L69.60 11.45Q69.86 11.19 69.96 11.19L69.96 11.19L69.96 11.19Q70.15 11.19 70.15 11.66L70.15 11.66L70.15 11.66Q70.15 12.63 69.31 13.57L69.31 13.57L69.31 13.57Q68.46 14.50 67.37 14.49L67.37 14.49L67.37 14.49Q66.72 14.49 66.40 13.97L66.40 13.97L66.40 13.97Q66.08 13.45 66.07 12.71L66.07 12.71L66.07 12.71Q66.07 11.24 66.72 9.93L66.72 9.93L66.72 9.93Q66.42 10.05 66.03 10.05L66.03 10.05L66.03 10.05Q65.65 10.05 65.48 10.02L65.48 10.02L65.48 10.02Q65.35 10.56 65.23 11.10L65.23 11.10L65.23 11.10Q65.10 11.63 65.10 12.10ZM78.05 11.14L78.05 11.14L78.05 11.14Q78.30 11.14 78.30 11.79L78.30 11.79L78.30 11.79Q78.30 12.14 78.01 12.63L78.01 12.63L78.01 12.63Q77.71 13.13 77.25 13.54L77.25 13.54L77.25 13.54Q76.78 13.96 76.20 14.22L76.20 14.22L76.20 14.22Q75.63 14.49 75.08 14.49L75.08 14.49L75.08 14.49Q74.34 14.49 74.09 13.19L74.09 13.19L74.09 13.19Q73.72 13.79 73.14 14.18L73.14 14.18L73.14 14.18Q72.55 14.56 71.56 14.56L71.56 14.56L71.56 14.56Q70.57 14.56 69.97 13.94L69.97 13.94L69.97 13.94Q69.37 13.33 69.38 12.45L69.38 12.45L69.38 12.45Q69.38 10.07 70.97 8.69L70.97 8.69L70.97 8.69Q71.64 8.12 72.22 7.94L72.22 7.94L72.22 7.94Q72.80 7.76 73.44 7.76L73.44 7.76L73.44 7.76Q74.09 7.76 74.49 7.98L74.49 7.98L74.49 7.98Q74.69 7.57 74.94 7.57L74.94 7.57L74.94 7.57Q75.43 7.57 75.87 8.00L75.87 8.00L75.87 8.00Q76.31 8.43 76.31 8.81L76.31 8.81L76.31 8.81Q76.12 9.27 75.74 9.91L75.74 9.91L75.74 9.91Q75.63 10.56 75.63 11.72L75.63 11.72L75.63 11.72Q75.63 12.88 75.92 12.88L75.92 12.88L75.92 12.88Q76.29 12.88 77.69 11.42L77.69 11.42L77.69 11.42Q77.94 11.14 78.05 11.14ZM71.44 11.98L71.44 11.98L71.44 11.98Q71.44 13.06 72.24 13.06L72.24 13.06L72.24 13.06Q73.09 13.05 73.65 12.15L73.65 12.15L73.65 12.15Q73.85 11.84 73.98 11.40L73.98 11.40L73.98 11.40Q73.98 9.83 74.26 8.71L74.26 8.71L74.26 8.71Q73.12 8.93 72.28 9.80L72.28 9.80L72.28 9.80Q71.44 10.67 71.44 11.98ZM85.27 10.19L85.27 10.19L85.27 10.19Q85.27 9.73 84.74 9.73L84.74 9.73L84.74 9.73Q84.38 9.73 83.93 10.44L83.93 10.44L83.93 10.44Q83.48 11.14 83.29 11.96L83.29 11.96L83.29 11.98L83.29 11.98Q83.29 12.46 83.43 12.96L83.43 12.96L83.43 12.96Q83.58 13.47 83.58 13.66L83.58 13.66L83.58 13.66Q83.58 14.14 82.39 14.60L82.39 14.60L82.39 14.60Q82.21 14.67 82.07 14.67L82.07 14.67L82.07 14.67Q81.72 14.67 81.59 14.31L81.59 14.31L81.59 14.31Q81.45 13.94 81.45 13.32L81.45 13.32L81.45 13.32Q81.45 12.70 81.49 12.14L81.49 12.14L81.49 12.14Q81.52 11.59 81.56 11.12L81.56 11.12L81.56 11.12Q81.59 10.65 81.63 10.30L81.63 10.30L81.63 10.30Q81.66 9.94 81.66 9.72L81.66 9.72L81.66 9.72Q81.66 9.24 81.23 9.24L81.23 9.24L81.23 9.24Q80.79 9.24 80.22 10.25L80.22 10.25L80.22 10.25Q79.65 11.27 79.65 11.87L79.65 11.87L79.65 11.87Q79.65 12.46 79.79 12.96L79.79 12.96L79.79 12.96Q79.94 13.47 79.94 13.66L79.94 13.66L79.94 13.66Q79.94 14.14 78.75 14.60L78.75 14.60L78.75 14.60Q78.57 14.67 78.43 14.67L78.43 14.67L78.43 14.67Q78.08 14.67 77.95 14.31L77.95 14.31L77.95 14.31Q77.81 13.94 77.81 13.19L77.81 13.19L77.81 13.19Q77.81 11.20 77.97 10.32L77.97 10.32L77.97 10.32Q78.18 9.02 78.92 7.85L78.92 7.85L78.92 7.85Q79.17 7.46 79.46 7.46L79.46 7.46L79.46 7.46Q79.93 7.46 80.32 8.22L80.32 8.22L80.32 8.22Q80.43 8.41 80.49 8.58L80.49 8.58L80.49 8.58Q81.16 7.74 82.07 7.74L82.07 7.74L82.07 7.74Q82.67 7.74 83.15 8.14L83.15 8.14L83.15 8.14Q83.62 8.54 83.62 9.14L83.62 9.14L83.62 9.30L83.62 9.30Q84.48 8.23 85.71 8.23L85.71 8.23L85.71 8.23Q86.46 8.23 86.86 8.62L86.86 8.62L86.86 8.62Q87.25 9.02 87.25 9.59L87.25 9.59L87.25 9.59Q87.25 10.16 87.16 10.63L87.16 10.63L87.16 10.63Q87.08 11.09 86.98 11.49L86.98 11.49L86.98 11.49Q86.87 11.90 86.79 12.21L86.79 12.21L86.79 12.21Q86.70 12.53 86.70 12.71L86.70 12.71L86.70 12.71Q86.70 12.88 86.81 12.88L86.81 12.88L86.81 12.88Q87.02 12.88 87.33 12.61L87.33 12.61L87.33 12.61Q87.64 12.35 87.95 12.03L87.95 12.03L87.95 12.03Q88.26 11.72 88.52 11.45L88.52 11.45L88.52 11.45Q88.77 11.19 88.87 11.19L88.87 11.19L88.87 11.19Q89.07 11.19 89.07 11.66L89.07 11.66L89.07 11.66Q89.07 12.64 88.08 13.57L88.08 13.57L88.08 13.57Q87.09 14.49 85.97 14.49L85.97 14.49L85.97 14.49Q84.97 14.49 84.97 12.66L84.97 12.66L84.97 12.66Q84.97 12.19 85.12 11.38L85.12 11.38L85.12 11.38Q85.27 10.57 85.27 10.19Z"></path></g><defs data-v-fde0c5aa=""><!----></defs><g data-v-fde0c5aa="" id="c581c7c4-424d-4456-b6b0-e4dd17ce401f" stroke="none" fill="#ffffff" transform="matrix(3.510334867848203,0,0,3.510334867848203,107.87598158582156,77.81488547159664)"><path d="M23.5 24H.5a.5.5 0 0 1-.5-.5v-.734a6.505 6.505 0 0 1 4.365-6.139l2.572-.895a.503.503 0 0 1 .533.134C8.73 17.243 10.339 18 12 18s3.27-.758 4.529-2.134a.503.503 0 0 1 .533-.134l2.572.895A6.503 6.503 0 0 1 24 22.766v.734a.5.5 0 0 1-.5.5zM1 23h22v-.234a5.505 5.505 0 0 0-3.693-5.195l-2.269-.789C15.621 18.215 13.844 19 12 19s-3.621-.785-5.038-2.218l-2.269.789A5.505 5.505 0 0 0 1 22.766V23zM10.5 10h-1a.5.5 0 1 1 0-1h1a.5.5 0 0 1 0 1zM14.5 10h-1a.5.5 0 1 1 0-1h1a.5.5 0 0 1 0 1z"></path><path d="M12 17c-2.464 0-4.653-1.99-5.562-5.002C5.614 11.948 5 10.891 5 9.5c0-1.133.407-2.044 1.004-2.37A1.862 1.862 0 0 1 6 7V5.5a.5.5 0 0 1 1 0V7c0 .113.014.222.026.332l.014.125a.5.5 0 0 1-.562.548C6.337 8.058 6 8.584 6 9.5c0 .968.376 1.5.5 1.5a.535.535 0 0 1 .467-.05c.147.06.272.176.312.332C7.979 14.104 9.876 16 12 16s4.021-1.896 4.722-4.718a.504.504 0 0 1 .297-.343.496.496 0 0 1 .452.039c.157.036.529-.512.529-1.478 0-.917-.337-1.442-.479-1.496l-.015.002a.513.513 0 0 1-.404-.145.505.505 0 0 1-.143-.405l.014-.125C16.986 7.222 17 7.113 17 7V5.5a.5.5 0 0 1 1 0V7c0 .053-.002.106-.005.159C18.611 7.499 19 8.394 19 9.5c0 1.391-.614 2.448-1.438 2.498C16.653 15.01 14.464 17 12 17z"></path><g><path d="M12.5 4a.525.525 0 0 1-.056-.003l-9-1a.5.5 0 0 1-.065-.982l8-2a.439.439 0 0 1 .177-.012l9 1a.5.5 0 0 1 .065.982l-8 2A.495.495 0 0 1 12.5 4zM6.32 2.31l6.146.683L17.68 1.69l-6.146-.683L6.32 2.31z"></path></g><g><path d="M12 7C7.996 7 6.305 5.968 6.234 5.924A.503.503 0 0 1 6 5.5v-3a.5.5 0 0 1 1 0v2.692C7.557 5.441 9.129 6 12 6c2.869 0 4.441-.559 5-.808V2a.5.5 0 0 1 1 0v3.5a.5.5 0 0 1-.234.423C17.695 5.968 16.004 7 12 7z"></path></g><g><path d="M20.5 9a.5.5 0 0 1-.447-.276l-1-2a.497.497 0 0 1 .094-.577L20 5.293V1.5a.5.5 0 0 1 1 0v3.793l.854.854a.5.5 0 0 1 .094.577l-1 2A.503.503 0 0 1 20.5 9zm-.392-2.401l.392.783.392-.783-.392-.392-.392.392z"></path></g></g><!----></svg>